<?xml version="1.0" encoding="UTF-8"?><svg xmlns="http://www.w3.org/2000/svg" xmlns:xlink="http://www.w3.org/1999/xlink" height="503.1" preserveAspectRatio="xMidYMid meet" version="1.0" viewBox="49.1 -2.1 411.8 503.1" width="411.8" zoomAndPan="magnify"><g><g id="change1_1"><path d="M379.39,498.48c-11.81,0.46-23.63,0.76-35.41,1.06c-54.65,1.41-109.12-0.83-163.72-1.96 c-22.04-0.44-44.07-1.26-66.08-2.54c-17.87-1.04-40,0.59-57.03-5.42c-8.05-2.84-7.27-12.5-7.37-19.68 c0-151.48-0.59-303.4,5.02-454.78c0.16-4.32,1.36-8.96,4.79-11.58c7.44-5.69,25.57-2.84,34.23-3c14.36-0.25,28.71-0.35,43.07-0.38 c28.72-0.06,57.43,0.19,86.15,0.25c41.25,0.08,82.51,0.5,123.75,1.52c20.63,0.51,41.25,1.17,61.86,2.03 c13.34,0.55,39.1-4.87,46.51,9.5c4.28,8.31,2.2,26.24,2.76,35.62c0.8,13.5,1.34,27.02,1.67,40.54 c1.31,52.52-0.45,105.05-1.57,157.56c-1.61,75.42-4.51,150.93-9.01,226.25c-1.1,18.47-12.57,21.21-28.82,22.61 C406.66,497.23,393.03,497.96,379.39,498.48z M434.65,125.05c-0.23-26.51-0.72-53.42-3.02-79.84c-0.21-2.42-0.48-4.95-1.85-6.95 c-7.36-10.74-40.78-6.58-51.85-7.14c-23.22-1.16-46.45-2.18-69.69-3.07c-52.9-2.01-105.81-3.39-158.74-3.39 c-19.28-0.04-38.42-0.41-57.65,1.42c-1.85,0.18-3.81,0.4-5.31,1.52c-7.56,5.61-3.48,31.23-3.61,39.33 c-0.32,19.97-0.63,39.94-0.95,59.9c-0.8,50.43-3.03,101.06-2.23,151.48c0.34,21.61-0.72,43.2-1.88,64.78 c-0.48,8.98-3.29,48.64,13.89,48.92c17.11,0.28,29.33,1.16,46.42,2.15c40.81,2.36,81.58,1.19,122.38,2.95 c24.52,1.06,50.59,1.78,75.73,1.72c24.29-0.05,54.51,2.33,78.33-2.84c14.75-3.2,12.18-47.58,12.66-65.17 C429.15,262.55,435.25,193.6,434.65,125.05z" fill="#FAE7C4"/></g><g id="change2_1"><path d="M359.9,356.7c1.07-0.58,1.63-1.62,2.37-2.52c4.28-5.23,9.58-8.96,16.48-9.11 c6.75-0.15,14.93,2.25,18.67,10.33c2.75,5.95,3.49,12.12,2.56,18.62c-1.66,11.68-6.08,22.33-12.22,32.24 c-4.3,6.95-9.2,13.53-15.31,19.09c-3.22,2.93-5.94,3.45-9.86,1.42c-3.97-2.06-7.72-4.47-10.87-7.72 c-6.07-6.26-11.84-12.78-16.57-20.15c-5.39-8.42-9.21-17.52-10.55-27.43c-0.93-6.85,0.04-13.43,4.2-19.45 c5.44-7.87,18.33-8.92,25.34-2.05c1.45,1.42,2.75,2.95,3.87,4.64C358.54,355.39,358.89,356.32,359.9,356.7z" fill="#FFB89D"/></g></g></svg>